<svg xmlns="http://www.w3.org/2000/svg" xmlns:xlink="http://www.w3.org/1999/xlink" width="500" zoomAndPan="magnify" viewBox="0 0 375 374.999991" height="500" preserveAspectRatio="xMidYMid meet" version="1.0"><defs><g/><clipPath id="303114e986"><path d="M 195 6.617188 L 298.648438 6.617188 L 298.648438 141 L 195 141 Z M 195 6.617188 " clip-rule="nonzero"/></clipPath><clipPath id="0f3dc19795"><path d="M 76.648438 6.617188 L 180 6.617188 L 180 141 L 76.648438 141 Z M 76.648438 6.617188 " clip-rule="nonzero"/></clipPath><clipPath id="10b2fd3033"><path d="M 195 132 L 298.648438 132 L 298.648438 263.867188 L 195 263.867188 Z M 195 132 " clip-rule="nonzero"/></clipPath><clipPath id="ebe0cdab35"><path d="M 76.648438 132 L 180 132 L 180 263.867188 L 76.648438 263.867188 Z M 76.648438 132 " clip-rule="nonzero"/></clipPath><clipPath id="e146ee4106"><rect x="0" width="179" y="0" height="71"/></clipPath><clipPath id="79758564c0"><rect x="0" width="90" y="0" height="25"/></clipPath></defs><rect x="-37.5" width="450" fill="#ffffff" y="-37.499999" height="449.999989" fill-opacity="1"/><rect x="-37.5" width="450" fill="#ffffff" y="-37.499999" height="449.999989" fill-opacity="1"/><g clip-path="url(#303114e986)"><path fill="#004aad" d="M 203.039062 6.621094 C 203.730469 6.621094 204.429688 6.726562 205.105469 6.941406 L 293.539062 35.078125 C 296.382812 35.980469 298.308594 38.628906 298.292969 41.613281 L 297.84375 133.523438 C 297.832031 135.695312 296.789062 137.730469 295.03125 139.007812 C 293.273438 140.289062 291.015625 140.652344 288.945312 139.996094 L 200.515625 111.859375 C 197.671875 110.957031 195.742188 108.304688 195.757812 105.320312 L 196.210938 13.414062 C 196.222656 11.242188 197.265625 9.203125 199.019531 7.925781 C 200.203125 7.066406 201.613281 6.621094 203.039062 6.621094 " fill-opacity="1" fill-rule="nonzero"/></g><g clip-path="url(#0f3dc19795)"><path fill="#004aad" d="M 165.578125 100.367188 L 165.199219 22.769531 L 90.402344 46.566406 L 90.785156 124.167969 Z M 171.980469 6.621094 C 173.40625 6.621094 174.816406 7.066406 175.996094 7.925781 C 177.753906 9.203125 178.796875 11.242188 178.808594 13.414062 L 179.257812 105.320312 C 179.273438 108.304688 177.347656 110.957031 174.5 111.859375 L 86.070312 139.996094 C 84.003906 140.652344 81.742188 140.289062 79.988281 139.007812 C 78.230469 137.730469 77.1875 135.691406 77.175781 133.523438 L 76.722656 41.613281 C 76.710938 38.628906 78.636719 35.980469 81.480469 35.078125 L 169.910156 6.941406 C 170.585938 6.726562 171.285156 6.621094 171.980469 6.621094 " fill-opacity="1" fill-rule="nonzero"/></g><g clip-path="url(#10b2fd3033)"><path fill="#004aad" d="M 203.039062 132.660156 C 203.730469 132.660156 204.429688 132.765625 205.105469 132.980469 L 293.539062 161.117188 C 296.394531 162.027344 298.324219 164.691406 298.292969 167.691406 L 297.839844 212.132812 C 297.816406 214.6875 296.363281 217.015625 294.082031 218.160156 L 205.652344 262.605469 C 203.53125 263.667969 201.007812 263.554688 198.992188 262.308594 C 196.972656 261.058594 195.75 258.851562 195.757812 256.476562 L 196.210938 139.460938 C 196.21875 137.289062 197.261719 135.25 199.019531 133.96875 C 200.199219 133.105469 201.613281 132.660156 203.039062 132.660156 " fill-opacity="1" fill-rule="nonzero"/></g><g clip-path="url(#ebe0cdab35)"><path fill="#004aad" d="M 165.5625 245.410156 L 165.1875 148.8125 L 90.429688 172.597656 L 90.785156 207.832031 Z M 171.980469 132.660156 C 173.40625 132.660156 174.816406 133.105469 176 133.96875 C 177.757812 135.25 178.796875 137.289062 178.808594 139.460938 L 179.257812 256.476562 C 179.265625 258.851562 178.042969 261.058594 176.027344 262.308594 C 174.007812 263.554688 171.488281 263.667969 169.367188 262.605469 L 80.9375 218.160156 C 78.652344 217.015625 77.203125 214.6875 77.175781 212.132812 L 76.722656 167.691406 C 76.695312 164.691406 78.625 162.027344 81.480469 161.117188 L 169.910156 132.980469 C 170.585938 132.765625 171.285156 132.660156 171.980469 132.660156 " fill-opacity="1" fill-rule="nonzero"/></g><g transform="matrix(1, 0, 0, 1, 100, 276)"><g clip-path="url(#e146ee4106)"><g fill="#004aad" fill-opacity="1"><g transform="translate(1.278792, 54.595908)"><g><path d="M 17.6875 0.671875 C 14.5625 0.671875 11.535156 0.25 8.609375 -0.59375 C 5.691406 -1.4375 3.347656 -2.539062 1.578125 -3.90625 L 4.6875 -10.796875 C 6.382812 -9.554688 8.398438 -8.554688 10.734375 -7.796875 C 13.078125 -7.046875 15.414062 -6.671875 17.75 -6.671875 C 20.351562 -6.671875 22.273438 -7.054688 23.515625 -7.828125 C 24.753906 -8.597656 25.375 -9.625 25.375 -10.90625 C 25.375 -11.851562 25.003906 -12.632812 24.265625 -13.25 C 23.535156 -13.875 22.597656 -14.375 21.453125 -14.75 C 20.304688 -15.125 18.753906 -15.539062 16.796875 -16 C 13.773438 -16.71875 11.300781 -17.429688 9.375 -18.140625 C 7.457031 -18.859375 5.8125 -20.007812 4.4375 -21.59375 C 3.0625 -23.175781 2.375 -25.285156 2.375 -27.921875 C 2.375 -30.222656 2.992188 -32.304688 4.234375 -34.171875 C 5.484375 -36.035156 7.359375 -37.515625 9.859375 -38.609375 C 12.367188 -39.703125 15.429688 -40.25 19.046875 -40.25 C 21.578125 -40.25 24.046875 -39.945312 26.453125 -39.34375 C 28.867188 -38.738281 30.976562 -37.875 32.78125 -36.75 L 29.96875 -29.796875 C 26.3125 -31.867188 22.65625 -32.90625 19 -32.90625 C 16.4375 -32.90625 14.539062 -32.488281 13.3125 -31.65625 C 12.082031 -30.820312 11.46875 -29.726562 11.46875 -28.375 C 11.46875 -27.019531 12.175781 -26.007812 13.59375 -25.34375 C 15.007812 -24.6875 17.164062 -24.039062 20.0625 -23.40625 C 23.082031 -22.6875 25.550781 -21.96875 27.46875 -21.25 C 29.394531 -20.539062 31.046875 -19.410156 32.421875 -17.859375 C 33.796875 -16.316406 34.484375 -14.226562 34.484375 -11.59375 C 34.484375 -9.332031 33.851562 -7.265625 32.59375 -5.390625 C 31.332031 -3.523438 29.4375 -2.046875 26.90625 -0.953125 C 24.382812 0.128906 21.3125 0.671875 17.6875 0.671875 Z M 17.6875 0.671875 "/></g></g></g><g fill="#004aad" fill-opacity="1"><g transform="translate(40.610239, 54.595908)"><g><path d="M 31.4375 -20.40625 L 39.796875 -20.40625 L 39.796875 -4.359375 C 37.648438 -2.734375 35.160156 -1.488281 32.328125 -0.625 C 29.503906 0.238281 26.660156 0.671875 23.796875 0.671875 C 19.691406 0.671875 16 -0.203125 12.71875 -1.953125 C 9.4375 -3.703125 6.863281 -6.128906 5 -9.234375 C 3.132812 -12.347656 2.203125 -15.863281 2.203125 -19.78125 C 2.203125 -23.707031 3.132812 -27.222656 5 -30.328125 C 6.863281 -33.441406 9.453125 -35.875 12.765625 -37.625 C 16.085938 -39.375 19.820312 -40.25 23.96875 -40.25 C 27.4375 -40.25 30.582031 -39.664062 33.40625 -38.5 C 36.238281 -37.332031 38.613281 -35.632812 40.53125 -33.40625 L 34.65625 -27.984375 C 31.820312 -30.960938 28.410156 -32.453125 24.421875 -32.453125 C 21.898438 -32.453125 19.65625 -31.921875 17.6875 -30.859375 C 15.726562 -29.804688 14.203125 -28.316406 13.109375 -26.390625 C 12.015625 -24.472656 11.46875 -22.269531 11.46875 -19.78125 C 11.46875 -17.332031 12.015625 -15.144531 13.109375 -13.21875 C 14.203125 -11.300781 15.71875 -9.804688 17.65625 -8.734375 C 19.601562 -7.660156 21.820312 -7.125 24.3125 -7.125 C 26.945312 -7.125 29.320312 -7.6875 31.4375 -8.8125 Z M 31.4375 -20.40625 "/></g></g></g><g fill="#004aad" fill-opacity="1"><g transform="translate(87.457455, 54.595908)"><g><path d="M 29.90625 0 L 22.265625 -11.03125 L 13.84375 -11.03125 L 13.84375 0 L 4.6875 0 L 4.6875 -39.578125 L 21.828125 -39.578125 C 25.328125 -39.578125 28.367188 -38.988281 30.953125 -37.8125 C 33.535156 -36.644531 35.519531 -34.988281 36.90625 -32.84375 C 38.300781 -30.695312 39 -28.15625 39 -25.21875 C 39 -22.269531 38.289062 -19.734375 36.875 -17.609375 C 35.46875 -15.484375 33.460938 -13.851562 30.859375 -12.71875 L 39.734375 0 Z M 29.734375 -25.21875 C 29.734375 -27.4375 29.015625 -29.140625 27.578125 -30.328125 C 26.148438 -31.515625 24.0625 -32.109375 21.3125 -32.109375 L 13.84375 -32.109375 L 13.84375 -18.3125 L 21.3125 -18.3125 C 24.0625 -18.3125 26.148438 -18.914062 27.578125 -20.125 C 29.015625 -21.332031 29.734375 -23.03125 29.734375 -25.21875 Z M 29.734375 -25.21875 "/></g></g></g><g fill="#004aad" fill-opacity="1"><g transform="translate(132.270311, 54.595908)"><g><path d="M 23.625 0.671875 C 19.59375 0.671875 15.945312 -0.203125 12.6875 -1.953125 C 9.425781 -3.703125 6.863281 -6.128906 5 -9.234375 C 3.132812 -12.347656 2.203125 -15.863281 2.203125 -19.78125 C 2.203125 -23.707031 3.132812 -27.222656 5 -30.328125 C 6.863281 -33.441406 9.425781 -35.875 12.6875 -37.625 C 15.945312 -39.375 19.613281 -40.25 23.6875 -40.25 C 27.113281 -40.25 30.210938 -39.644531 32.984375 -38.4375 C 35.753906 -37.226562 38.082031 -35.492188 39.96875 -33.234375 L 34.09375 -27.8125 C 31.414062 -30.90625 28.097656 -32.453125 24.140625 -32.453125 C 21.691406 -32.453125 19.503906 -31.914062 17.578125 -30.84375 C 15.660156 -29.769531 14.160156 -28.269531 13.078125 -26.34375 C 12.003906 -24.414062 11.46875 -22.226562 11.46875 -19.78125 C 11.46875 -17.332031 12.003906 -15.144531 13.078125 -13.21875 C 14.160156 -11.300781 15.660156 -9.804688 17.578125 -8.734375 C 19.503906 -7.660156 21.691406 -7.125 24.140625 -7.125 C 28.097656 -7.125 31.414062 -8.6875 34.09375 -11.8125 L 39.96875 -6.390625 C 38.082031 -4.085938 35.742188 -2.332031 32.953125 -1.125 C 30.171875 0.0703125 27.0625 0.671875 23.625 0.671875 Z M 23.625 0.671875 "/></g></g></g></g></g><g transform="matrix(1, 0, 0, 1, 146, 343)"><g clip-path="url(#79758564c0)"><g fill="#004aad" fill-opacity="1"><g transform="translate(0.778558, 18.443766)"><g><path d="M 8.125 0.203125 C 6.132812 0.203125 4.582031 -0.351562 3.46875 -1.46875 C 2.363281 -2.582031 1.8125 -4.179688 1.8125 -6.265625 L 1.8125 -14.390625 L 4.484375 -14.390625 L 4.484375 -6.375 C 4.484375 -3.550781 5.703125 -2.140625 8.140625 -2.140625 C 10.566406 -2.140625 11.78125 -3.550781 11.78125 -6.375 L 11.78125 -14.390625 L 14.421875 -14.390625 L 14.421875 -6.265625 C 14.421875 -4.179688 13.867188 -2.582031 12.765625 -1.46875 C 11.660156 -0.351562 10.113281 0.203125 8.125 0.203125 Z M 8.125 0.203125 "/></g></g></g><g fill="#004aad" fill-opacity="1"><g transform="translate(23.830314, 18.443766)"><g><path d="M 1.9375 -14.390625 L 8.21875 -14.390625 C 9.757812 -14.390625 11.125 -14.09375 12.3125 -13.5 C 13.507812 -12.90625 14.4375 -12.0625 15.09375 -10.96875 C 15.75 -9.875 16.078125 -8.617188 16.078125 -7.203125 C 16.078125 -5.773438 15.75 -4.515625 15.09375 -3.421875 C 14.4375 -2.328125 13.507812 -1.484375 12.3125 -0.890625 C 11.125 -0.296875 9.757812 0 8.21875 0 L 1.9375 0 Z M 8.109375 -2.265625 C 9.160156 -2.265625 10.085938 -2.460938 10.890625 -2.859375 C 11.691406 -3.265625 12.304688 -3.84375 12.734375 -4.59375 C 13.171875 -5.34375 13.390625 -6.210938 13.390625 -7.203125 C 13.390625 -8.179688 13.171875 -9.046875 12.734375 -9.796875 C 12.304688 -10.546875 11.691406 -11.117188 10.890625 -11.515625 C 10.085938 -11.921875 9.160156 -12.125 8.109375 -12.125 L 4.609375 -12.125 L 4.609375 -2.265625 Z M 8.109375 -2.265625 "/></g></g></g><g fill="#004aad" fill-opacity="1"><g transform="translate(47.642933, 18.443766)"><g><path d="M 1.9375 -14.390625 L 4.609375 -14.390625 L 4.609375 -2.265625 L 12.125 -2.265625 L 12.125 0 L 1.9375 0 Z M 1.9375 -14.390625 "/></g></g></g><g fill="#004aad" fill-opacity="1"><g transform="translate(66.787604, 18.443766)"><g><path d="M 11.265625 -3.328125 L 4.078125 -3.328125 L 2.65625 0 L -0.109375 0 L 6.375 -14.390625 L 9 -14.390625 L 15.5 0 L 12.703125 0 Z M 10.390625 -5.421875 L 7.671875 -11.71875 L 4.96875 -5.421875 Z M 10.390625 -5.421875 "/></g></g></g></g></g></svg>