<svg xmlns="http://www.w3.org/2000/svg" xmlns:xlink="http://www.w3.org/1999/xlink" width="500" zoomAndPan="magnify" viewBox="0 0 375 374.999991" height="500" preserveAspectRatio="xMidYMid meet" version="1.0"><defs><g/><clipPath id="c1315813a4"><path d="M 192 68.046875 L 252.5625 68.046875 L 252.5625 147 L 192 147 Z M 192 68.046875 " clip-rule="nonzero"/></clipPath><clipPath id="980e52cd00"><path d="M 122.8125 68.046875 L 183 68.046875 L 183 147 L 122.8125 147 Z M 122.8125 68.046875 " clip-rule="nonzero"/></clipPath><clipPath id="492cf81133"><path d="M 192 141 L 252.5625 141 L 252.5625 218 L 192 218 Z M 192 141 " clip-rule="nonzero"/></clipPath><clipPath id="0c065a9449"><path d="M 122.8125 141 L 183 141 L 183 218 L 122.8125 218 Z M 122.8125 141 " clip-rule="nonzero"/></clipPath></defs><g clip-path="url(#c1315813a4)"><path fill="#ffffff" d="M 196.570312 68.050781 C 196.972656 68.050781 197.382812 68.113281 197.777344 68.238281 L 249.382812 84.65625 C 251.042969 85.183594 252.164062 86.730469 252.15625 88.472656 L 251.894531 142.105469 C 251.886719 143.375 251.277344 144.5625 250.253906 145.308594 C 249.226562 146.054688 247.910156 146.269531 246.703125 145.882812 L 195.097656 129.464844 C 193.4375 128.9375 192.3125 127.390625 192.320312 125.648438 L 192.585938 72.015625 C 192.589844 70.746094 193.199219 69.558594 194.222656 68.8125 C 194.914062 68.3125 195.738281 68.050781 196.570312 68.050781 " fill-opacity="1" fill-rule="nonzero"/></g><g clip-path="url(#980e52cd00)"><path fill="#ffffff" d="M 174.710938 122.761719 L 174.488281 77.472656 L 130.839844 91.363281 L 131.0625 136.648438 Z M 178.445312 68.050781 C 179.277344 68.050781 180.097656 68.3125 180.789062 68.8125 C 181.8125 69.558594 182.421875 70.746094 182.429688 72.015625 L 182.691406 125.648438 C 182.699219 127.390625 181.574219 128.9375 179.917969 129.464844 L 128.3125 145.882812 C 127.105469 146.269531 125.785156 146.054688 124.761719 145.308594 C 123.734375 144.5625 123.125 143.375 123.121094 142.105469 L 122.855469 88.472656 C 122.847656 86.730469 123.972656 85.183594 125.632812 84.65625 L 177.238281 68.238281 C 177.632812 68.113281 178.039062 68.050781 178.445312 68.050781 " fill-opacity="1" fill-rule="nonzero"/></g><g clip-path="url(#492cf81133)"><path fill="#ffffff" d="M 196.570312 141.601562 C 196.972656 141.601562 197.382812 141.664062 197.777344 141.789062 L 249.382812 158.210938 C 251.050781 158.742188 252.175781 160.296875 252.15625 162.046875 L 251.894531 187.980469 C 251.878906 189.472656 251.03125 190.828125 249.699219 191.5 L 198.09375 217.433594 C 196.855469 218.058594 195.382812 217.992188 194.207031 217.261719 C 193.03125 216.53125 192.316406 215.246094 192.320312 213.859375 L 192.585938 145.574219 C 192.589844 144.304688 193.199219 143.113281 194.222656 142.367188 C 194.914062 141.863281 195.738281 141.601562 196.570312 141.601562 " fill-opacity="1" fill-rule="nonzero"/></g><g clip-path="url(#0c065a9449)"><path fill="#ffffff" d="M 174.699219 207.402344 L 174.480469 151.027344 L 130.851562 164.910156 L 131.0625 185.472656 Z M 178.445312 141.601562 C 179.277344 141.601562 180.101562 141.863281 180.789062 142.367188 C 181.816406 143.113281 182.421875 144.304688 182.429688 145.574219 L 182.691406 213.859375 C 182.699219 215.246094 181.984375 216.53125 180.804688 217.261719 C 179.628906 217.992188 178.15625 218.058594 176.917969 217.433594 L 125.316406 191.5 C 123.980469 190.828125 123.136719 189.472656 123.121094 187.980469 L 122.855469 162.046875 C 122.839844 160.296875 123.964844 158.742188 125.632812 158.210938 L 177.238281 141.789062 C 177.632812 141.664062 178.039062 141.601562 178.445312 141.601562 " fill-opacity="1" fill-rule="nonzero"/></g><g fill="#ffffff" fill-opacity="1"><g transform="translate(137.185002, 257.109286)"><g><path d="M 10.328125 0.390625 C 8.503906 0.390625 6.738281 0.144531 5.03125 -0.34375 C 3.320312 -0.84375 1.953125 -1.488281 0.921875 -2.28125 L 2.734375 -6.296875 C 3.722656 -5.578125 4.898438 -4.992188 6.265625 -4.546875 C 7.628906 -4.109375 8.992188 -3.890625 10.359375 -3.890625 C 11.878906 -3.890625 13 -4.113281 13.71875 -4.5625 C 14.445312 -5.019531 14.8125 -5.617188 14.8125 -6.359375 C 14.8125 -6.910156 14.597656 -7.367188 14.171875 -7.734375 C 13.742188 -8.097656 13.191406 -8.390625 12.515625 -8.609375 C 11.847656 -8.828125 10.941406 -9.066406 9.796875 -9.328125 C 8.035156 -9.753906 6.59375 -10.175781 5.46875 -10.59375 C 4.351562 -11.007812 3.394531 -11.675781 2.59375 -12.59375 C 1.789062 -13.519531 1.390625 -14.753906 1.390625 -16.296875 C 1.390625 -17.640625 1.75 -18.851562 2.46875 -19.9375 C 3.195312 -21.03125 4.289062 -21.894531 5.75 -22.53125 C 7.21875 -23.164062 9.003906 -23.484375 11.109375 -23.484375 C 12.585938 -23.484375 14.03125 -23.304688 15.4375 -22.953125 C 16.84375 -22.597656 18.070312 -22.09375 19.125 -21.4375 L 17.484375 -17.375 C 15.347656 -18.59375 13.210938 -19.203125 11.078125 -19.203125 C 9.585938 -19.203125 8.484375 -18.957031 7.765625 -18.46875 C 7.054688 -17.988281 6.703125 -17.351562 6.703125 -16.5625 C 6.703125 -15.769531 7.113281 -15.179688 7.9375 -14.796875 C 8.757812 -14.410156 10.015625 -14.03125 11.703125 -13.65625 C 13.460938 -13.238281 14.90625 -12.820312 16.03125 -12.40625 C 17.15625 -11.988281 18.117188 -11.328125 18.921875 -10.421875 C 19.722656 -9.523438 20.125 -8.304688 20.125 -6.765625 C 20.125 -5.441406 19.753906 -4.234375 19.015625 -3.140625 C 18.273438 -2.054688 17.164062 -1.195312 15.6875 -0.5625 C 14.21875 0.0703125 12.429688 0.390625 10.328125 0.390625 Z M 10.328125 0.390625 "/></g></g></g><g fill="#ffffff" fill-opacity="1"><g transform="translate(160.137144, 257.109286)"><g><path d="M 18.34375 -11.90625 L 23.21875 -11.90625 L 23.21875 -2.546875 C 21.96875 -1.597656 20.515625 -0.867188 18.859375 -0.359375 C 17.210938 0.140625 15.554688 0.390625 13.890625 0.390625 C 11.492188 0.390625 9.335938 -0.117188 7.421875 -1.140625 C 5.503906 -2.160156 4 -3.578125 2.90625 -5.390625 C 1.820312 -7.203125 1.28125 -9.253906 1.28125 -11.546875 C 1.28125 -13.828125 1.820312 -15.875 2.90625 -17.6875 C 4 -19.507812 5.515625 -20.929688 7.453125 -21.953125 C 9.390625 -22.972656 11.566406 -23.484375 13.984375 -23.484375 C 16.003906 -23.484375 17.835938 -23.140625 19.484375 -22.453125 C 21.140625 -21.773438 22.53125 -20.789062 23.65625 -19.5 L 20.21875 -16.328125 C 18.570312 -18.066406 16.582031 -18.9375 14.25 -18.9375 C 12.78125 -18.9375 11.472656 -18.625 10.328125 -18 C 9.179688 -17.382812 8.289062 -16.515625 7.65625 -15.390625 C 7.019531 -14.273438 6.703125 -12.992188 6.703125 -11.546875 C 6.703125 -10.117188 7.019531 -8.84375 7.65625 -7.71875 C 8.289062 -6.59375 9.171875 -5.71875 10.296875 -5.09375 C 11.429688 -4.46875 12.726562 -4.15625 14.1875 -4.15625 C 15.71875 -4.15625 17.101562 -4.484375 18.34375 -5.140625 Z M 18.34375 -11.90625 "/></g></g></g><g fill="#ffffff" fill-opacity="1"><g transform="translate(187.475167, 257.109286)"><g><path d="M 17.453125 0 L 13 -6.4375 L 8.078125 -6.4375 L 8.078125 0 L 2.734375 0 L 2.734375 -23.09375 L 12.734375 -23.09375 C 14.773438 -23.09375 16.546875 -22.75 18.046875 -22.0625 C 19.554688 -21.382812 20.71875 -20.414062 21.53125 -19.15625 C 22.351562 -17.90625 22.765625 -16.425781 22.765625 -14.71875 C 22.765625 -13 22.347656 -11.515625 21.515625 -10.265625 C 20.691406 -9.023438 19.523438 -8.078125 18.015625 -7.421875 L 23.1875 0 Z M 17.34375 -14.71875 C 17.34375 -16.007812 16.925781 -17 16.09375 -17.6875 C 15.257812 -18.382812 14.039062 -18.734375 12.4375 -18.734375 L 8.078125 -18.734375 L 8.078125 -10.6875 L 12.4375 -10.6875 C 14.039062 -10.6875 15.257812 -11.035156 16.09375 -11.734375 C 16.925781 -12.441406 17.34375 -13.4375 17.34375 -14.71875 Z M 17.34375 -14.71875 "/></g></g></g><g fill="#ffffff" fill-opacity="1"><g transform="translate(213.626025, 257.109286)"><g><path d="M 13.78125 0.390625 C 11.4375 0.390625 9.3125 -0.117188 7.40625 -1.140625 C 5.5 -2.160156 4 -3.578125 2.90625 -5.390625 C 1.820312 -7.203125 1.28125 -9.253906 1.28125 -11.546875 C 1.28125 -13.828125 1.820312 -15.875 2.90625 -17.6875 C 4 -19.507812 5.5 -20.929688 7.40625 -21.953125 C 9.3125 -22.972656 11.453125 -23.484375 13.828125 -23.484375 C 15.828125 -23.484375 17.632812 -23.128906 19.25 -22.421875 C 20.863281 -21.722656 22.21875 -20.710938 23.3125 -19.390625 L 19.890625 -16.234375 C 18.328125 -18.035156 16.390625 -18.9375 14.078125 -18.9375 C 12.648438 -18.9375 11.375 -18.617188 10.25 -17.984375 C 9.132812 -17.359375 8.265625 -16.484375 7.640625 -15.359375 C 7.015625 -14.242188 6.703125 -12.972656 6.703125 -11.546875 C 6.703125 -10.117188 7.015625 -8.84375 7.640625 -7.71875 C 8.265625 -6.59375 9.132812 -5.71875 10.25 -5.09375 C 11.375 -4.46875 12.648438 -4.15625 14.078125 -4.15625 C 16.390625 -4.15625 18.328125 -5.066406 19.890625 -6.890625 L 23.3125 -3.734375 C 22.21875 -2.390625 20.851562 -1.363281 19.21875 -0.65625 C 17.59375 0.0390625 15.78125 0.390625 13.78125 0.390625 Z M 13.78125 0.390625 "/></g></g></g><g fill="#ffffff" fill-opacity="1"><g transform="translate(163.736712, 275.110763)"><g><path d="M 4.734375 0.125 C 3.578125 0.125 2.675781 -0.203125 2.03125 -0.859375 C 1.382812 -1.515625 1.0625 -2.445312 1.0625 -3.65625 L 1.0625 -8.40625 L 2.609375 -8.40625 L 2.609375 -3.71875 C 2.609375 -2.070312 3.320312 -1.25 4.75 -1.25 C 6.164062 -1.25 6.875 -2.070312 6.875 -3.71875 L 6.875 -8.40625 L 8.40625 -8.40625 L 8.40625 -3.65625 C 8.40625 -2.445312 8.082031 -1.515625 7.4375 -0.859375 C 6.800781 -0.203125 5.898438 0.125 4.734375 0.125 Z M 4.734375 0.125 "/></g></g></g><g fill="#ffffff" fill-opacity="1"><g transform="translate(177.188726, 275.110763)"><g><path d="M 1.125 -8.40625 L 4.796875 -8.40625 C 5.691406 -8.40625 6.488281 -8.226562 7.1875 -7.875 C 7.882812 -7.53125 8.425781 -7.039062 8.8125 -6.40625 C 9.195312 -5.769531 9.390625 -5.035156 9.390625 -4.203125 C 9.390625 -3.367188 9.195312 -2.632812 8.8125 -2 C 8.425781 -1.363281 7.882812 -0.867188 7.1875 -0.515625 C 6.488281 -0.171875 5.691406 0 4.796875 0 L 1.125 0 Z M 4.734375 -1.3125 C 5.347656 -1.3125 5.890625 -1.429688 6.359375 -1.671875 C 6.828125 -1.910156 7.1875 -2.25 7.4375 -2.6875 C 7.6875 -3.125 7.8125 -3.628906 7.8125 -4.203125 C 7.8125 -4.773438 7.6875 -5.28125 7.4375 -5.71875 C 7.1875 -6.15625 6.828125 -6.488281 6.359375 -6.71875 C 5.890625 -6.957031 5.347656 -7.078125 4.734375 -7.078125 L 2.6875 -7.078125 L 2.6875 -1.3125 Z M 4.734375 -1.3125 "/></g></g></g><g fill="#ffffff" fill-opacity="1"><g transform="translate(191.084748, 275.110763)"><g><path d="M 1.125 -8.40625 L 2.6875 -8.40625 L 2.6875 -1.3125 L 7.078125 -1.3125 L 7.078125 0 L 1.125 0 Z M 1.125 -8.40625 "/></g></g></g><g fill="#ffffff" fill-opacity="1"><g transform="translate(202.256756, 275.110763)"><g><path d="M 6.578125 -1.9375 L 2.375 -1.9375 L 1.546875 0 L -0.0625 0 L 3.71875 -8.40625 L 5.25 -8.40625 L 9.046875 0 L 7.421875 0 Z M 6.0625 -3.171875 L 4.46875 -6.84375 L 2.90625 -3.171875 Z M 6.0625 -3.171875 "/></g></g></g></svg>